<mxfile host="app.diagrams.net" modified="2023-11-27T09:49:36.238Z" agent="Mozilla/5.0 (Macintosh; Intel Mac OS X 10_15_7) AppleWebKit/537.36 (KHTML, like Gecko) Chrome/119.0.0.0 Safari/537.36" etag="1-HjPkOpsFFdTjW9F9gM" version="22.1.4" type="github">
  <diagram id="07fea595-8f29-1299-0266-81d95cde20df" name="Page-1">
    <mxGraphModel dx="1302" dy="1285" grid="1" gridSize="10" guides="1" tooltips="1" connect="1" arrows="1" fold="1" page="1" pageScale="1" pageWidth="1169" pageHeight="827" background="#ffffff" math="0" shadow="0">
      <root>
        <mxCell id="0" />
        <mxCell id="1" parent="0" />
        <mxCell id="BD7Ygz-sJtCW-BqWoPz--244" value="" style="rounded=1;whiteSpace=wrap;html=1;fontSize=16;movable=1;resizable=1;rotatable=1;deletable=1;editable=1;locked=0;connectable=1;" vertex="1" parent="1">
          <mxGeometry y="375" width="1160" height="270" as="geometry" />
        </mxCell>
        <mxCell id="BD7Ygz-sJtCW-BqWoPz--234" value="" style="rounded=1;whiteSpace=wrap;html=1;fontSize=16;movable=1;resizable=1;rotatable=1;deletable=1;editable=1;locked=0;connectable=1;" vertex="1" parent="1">
          <mxGeometry y="110" width="1160" height="240" as="geometry" />
        </mxCell>
        <mxCell id="BD7Ygz-sJtCW-BqWoPz--230" value="&lt;b&gt;INACTIVE&lt;/b&gt;" style="shape=delay;whiteSpace=wrap;html=1;fontSize=16;" vertex="1" parent="1">
          <mxGeometry y="110" width="110" height="40" as="geometry" />
        </mxCell>
        <mxCell id="BD7Ygz-sJtCW-BqWoPz--232" value="&lt;b&gt;ACTIVE&lt;/b&gt;" style="shape=delay;whiteSpace=wrap;html=1;fontSize=16;" vertex="1" parent="1">
          <mxGeometry y="375" width="110" height="40" as="geometry" />
        </mxCell>
        <mxCell id="BD7Ygz-sJtCW-BqWoPz--246" value="" style="rounded=1;whiteSpace=wrap;html=1;fontSize=16;movable=1;resizable=1;rotatable=1;deletable=1;editable=1;locked=0;connectable=1;" vertex="1" parent="1">
          <mxGeometry y="670" width="1160" height="157" as="geometry" />
        </mxCell>
        <mxCell id="BD7Ygz-sJtCW-BqWoPz--247" value="&lt;b&gt;ALARMED&lt;/b&gt;" style="shape=delay;whiteSpace=wrap;html=1;fontSize=16;" vertex="1" parent="1">
          <mxGeometry y="670" width="110" height="40" as="geometry" />
        </mxCell>
        <mxCell id="BD7Ygz-sJtCW-BqWoPz--255" value="Idle" style="rounded=1;whiteSpace=wrap;html=1;fontSize=16;rotation=0;" vertex="1" parent="1">
          <mxGeometry x="140" y="190" width="120" height="60" as="geometry" />
        </mxCell>
        <mxCell id="BD7Ygz-sJtCW-BqWoPz--268" value="&lt;font style=&quot;font-size: 26px;&quot;&gt;State Machine Alarm system&lt;/font&gt;" style="text;strokeColor=none;fillColor=none;html=1;fontSize=16;fontStyle=1;verticalAlign=middle;align=center;" vertex="1" parent="1">
          <mxGeometry x="450" width="190" height="60" as="geometry" />
        </mxCell>
        <mxCell id="BD7Ygz-sJtCW-BqWoPz--279" value="" style="endArrow=classic;html=1;rounded=0;fontSize=12;startSize=8;endSize=8;curved=1;entryX=0;entryY=0.5;entryDx=0;entryDy=0;" edge="1" parent="1" target="BD7Ygz-sJtCW-BqWoPz--287">
          <mxGeometry relative="1" as="geometry">
            <mxPoint x="260" y="219.32999999999998" as="sourcePoint" />
            <mxPoint x="580" y="220" as="targetPoint" />
          </mxGeometry>
        </mxCell>
        <mxCell id="BD7Ygz-sJtCW-BqWoPz--281" value="Enter pin code" style="edgeLabel;html=1;align=center;verticalAlign=middle;resizable=0;points=[];fontSize=16;" vertex="1" connectable="0" parent="BD7Ygz-sJtCW-BqWoPz--279">
          <mxGeometry x="-0.0771" relative="1" as="geometry">
            <mxPoint as="offset" />
          </mxGeometry>
        </mxCell>
        <mxCell id="BD7Ygz-sJtCW-BqWoPz--286" value="" style="edgeStyle=segmentEdgeStyle;endArrow=classic;html=1;curved=0;rounded=0;endSize=8;startSize=8;fontSize=12;exitX=0;exitY=0.5;exitDx=0;exitDy=0;" edge="1" parent="1" source="BD7Ygz-sJtCW-BqWoPz--288" target="BD7Ygz-sJtCW-BqWoPz--255">
          <mxGeometry width="50" height="50" relative="1" as="geometry">
            <mxPoint x="327.47" y="300.03" as="sourcePoint" />
            <mxPoint x="597.5003030303033" y="285.0018614718613" as="targetPoint" />
          </mxGeometry>
        </mxCell>
        <mxCell id="BD7Ygz-sJtCW-BqWoPz--287" value="Validate pin code" style="rhombus;whiteSpace=wrap;html=1;fontSize=16;" vertex="1" parent="1">
          <mxGeometry x="580" y="155" width="140" height="130" as="geometry" />
        </mxCell>
        <mxCell id="BD7Ygz-sJtCW-BqWoPz--288" value="Invalid pin code" style="text;html=1;strokeColor=none;fillColor=none;align=center;verticalAlign=middle;whiteSpace=wrap;rounded=0;fontSize=16;" vertex="1" parent="1">
          <mxGeometry x="340" y="285" width="120" height="30" as="geometry" />
        </mxCell>
        <mxCell id="BD7Ygz-sJtCW-BqWoPz--291" value="" style="shape=image;html=1;verticalAlign=top;verticalLabelPosition=bottom;labelBackgroundColor=#ffffff;imageAspect=0;aspect=fixed;image=https://cdn4.iconfinder.com/data/icons/essential-app-2/16/record-round-circle-dot-128.png;fontSize=16;" vertex="1" parent="1">
          <mxGeometry x="40" y="40" width="40" height="40" as="geometry" />
        </mxCell>
        <mxCell id="BD7Ygz-sJtCW-BqWoPz--296" value="" style="edgeStyle=segmentEdgeStyle;endArrow=classic;html=1;curved=0;rounded=0;endSize=8;startSize=8;fontSize=12;exitX=1;exitY=0.5;exitDx=0;exitDy=0;entryX=0.1;entryY=0.003;entryDx=0;entryDy=0;entryPerimeter=0;" edge="1" parent="1" source="BD7Ygz-sJtCW-BqWoPz--291" target="BD7Ygz-sJtCW-BqWoPz--234">
          <mxGeometry width="50" height="50" relative="1" as="geometry">
            <mxPoint x="140" y="79.97" as="sourcePoint" />
            <mxPoint x="190" y="29.97" as="targetPoint" />
          </mxGeometry>
        </mxCell>
        <mxCell id="BD7Ygz-sJtCW-BqWoPz--297" value="" style="shape=image;html=1;verticalAlign=top;verticalLabelPosition=bottom;labelBackgroundColor=#ffffff;imageAspect=0;aspect=fixed;image=https://cdn4.iconfinder.com/data/icons/essential-app-2/16/record-round-circle-dot-128.png;fontSize=16;" vertex="1" parent="1">
          <mxGeometry x="66" y="206" width="28" height="28" as="geometry" />
        </mxCell>
        <mxCell id="BD7Ygz-sJtCW-BqWoPz--298" value="" style="endArrow=classic;html=1;rounded=0;fontSize=12;startSize=8;endSize=8;curved=1;exitX=1;exitY=0.5;exitDx=0;exitDy=0;entryX=0;entryY=0.5;entryDx=0;entryDy=0;" edge="1" parent="1" source="BD7Ygz-sJtCW-BqWoPz--297" target="BD7Ygz-sJtCW-BqWoPz--255">
          <mxGeometry width="50" height="50" relative="1" as="geometry">
            <mxPoint x="210" y="280" as="sourcePoint" />
            <mxPoint x="260" y="230" as="targetPoint" />
          </mxGeometry>
        </mxCell>
        <mxCell id="BD7Ygz-sJtCW-BqWoPz--299" value="" style="endArrow=classic;html=1;rounded=0;fontSize=12;startSize=8;endSize=8;curved=1;exitX=1;exitY=0.5;exitDx=0;exitDy=0;" edge="1" parent="1" source="BD7Ygz-sJtCW-BqWoPz--287" target="BD7Ygz-sJtCW-BqWoPz--305">
          <mxGeometry relative="1" as="geometry">
            <mxPoint x="740" y="230" as="sourcePoint" />
            <mxPoint x="990" y="220" as="targetPoint" />
          </mxGeometry>
        </mxCell>
        <mxCell id="BD7Ygz-sJtCW-BqWoPz--300" value="Pin code validated" style="edgeLabel;resizable=0;html=1;align=center;verticalAlign=middle;fontSize=16;" connectable="0" vertex="1" parent="BD7Ygz-sJtCW-BqWoPz--299">
          <mxGeometry relative="1" as="geometry" />
        </mxCell>
        <mxCell id="BD7Ygz-sJtCW-BqWoPz--303" value="&amp;nbsp;Initialization failed&amp;nbsp;&amp;nbsp;" style="text;html=1;strokeColor=none;fillColor=none;align=center;verticalAlign=middle;whiteSpace=wrap;rounded=0;fontSize=16;" vertex="1" parent="1">
          <mxGeometry x="780" y="125" width="90" height="30" as="geometry" />
        </mxCell>
        <mxCell id="BD7Ygz-sJtCW-BqWoPz--305" value="Initialization start" style="rhombus;whiteSpace=wrap;html=1;fontSize=16;" vertex="1" parent="1">
          <mxGeometry x="990" y="155" width="140" height="130" as="geometry" />
        </mxCell>
        <mxCell id="BD7Ygz-sJtCW-BqWoPz--309" value="" style="edgeStyle=segmentEdgeStyle;endArrow=classic;html=1;curved=0;rounded=0;endSize=8;startSize=8;fontSize=12;exitX=0;exitY=0.5;exitDx=0;exitDy=0;entryX=0.5;entryY=0;entryDx=0;entryDy=0;" edge="1" parent="1" source="BD7Ygz-sJtCW-BqWoPz--303" target="BD7Ygz-sJtCW-BqWoPz--255">
          <mxGeometry width="50" height="50" relative="1" as="geometry">
            <mxPoint x="510" y="220" as="sourcePoint" />
            <mxPoint x="560" y="170" as="targetPoint" />
          </mxGeometry>
        </mxCell>
        <mxCell id="BD7Ygz-sJtCW-BqWoPz--310" value="Initialization succes" style="text;html=1;strokeColor=none;fillColor=none;align=center;verticalAlign=middle;whiteSpace=wrap;rounded=0;fontSize=16;" vertex="1" parent="1">
          <mxGeometry x="960" y="300" width="200" height="20" as="geometry" />
        </mxCell>
        <mxCell id="BD7Ygz-sJtCW-BqWoPz--312" value="" style="endArrow=none;html=1;rounded=0;fontSize=12;startSize=8;endSize=8;curved=1;entryX=0.5;entryY=1;entryDx=0;entryDy=0;exitX=0.5;exitY=0;exitDx=0;exitDy=0;" edge="1" parent="1" source="BD7Ygz-sJtCW-BqWoPz--310" target="BD7Ygz-sJtCW-BqWoPz--305">
          <mxGeometry width="50" height="50" relative="1" as="geometry">
            <mxPoint x="860" y="335" as="sourcePoint" />
            <mxPoint x="910" y="285" as="targetPoint" />
          </mxGeometry>
        </mxCell>
        <mxCell id="BD7Ygz-sJtCW-BqWoPz--315" value="" style="endArrow=classic;html=1;rounded=0;fontSize=12;startSize=8;endSize=8;curved=1;exitX=0.5;exitY=1;exitDx=0;exitDy=0;entryX=0.914;entryY=0.002;entryDx=0;entryDy=0;entryPerimeter=0;" edge="1" parent="1" source="BD7Ygz-sJtCW-BqWoPz--310" target="BD7Ygz-sJtCW-BqWoPz--244">
          <mxGeometry width="50" height="50" relative="1" as="geometry">
            <mxPoint x="880" y="285" as="sourcePoint" />
            <mxPoint x="1060" y="360" as="targetPoint" />
          </mxGeometry>
        </mxCell>
        <mxCell id="BD7Ygz-sJtCW-BqWoPz--316" value="" style="shape=image;html=1;verticalAlign=top;verticalLabelPosition=bottom;labelBackgroundColor=#ffffff;imageAspect=0;aspect=fixed;image=https://cdn4.iconfinder.com/data/icons/essential-app-2/16/record-round-circle-dot-128.png;fontSize=16;" vertex="1" parent="1">
          <mxGeometry x="1046" y="496" width="28" height="28" as="geometry" />
        </mxCell>
        <mxCell id="BD7Ygz-sJtCW-BqWoPz--317" value="" style="rounded=1;whiteSpace=wrap;html=1;fontSize=16;" vertex="1" parent="1">
          <mxGeometry x="490" y="410" width="410" height="200" as="geometry" />
        </mxCell>
        <mxCell id="BD7Ygz-sJtCW-BqWoPz--318" value="" style="endArrow=classic;html=1;rounded=0;fontSize=12;startSize=8;endSize=8;curved=1;exitX=0;exitY=0.5;exitDx=0;exitDy=0;entryX=1;entryY=0.5;entryDx=0;entryDy=0;" edge="1" parent="1" source="BD7Ygz-sJtCW-BqWoPz--316" target="BD7Ygz-sJtCW-BqWoPz--317">
          <mxGeometry width="50" height="50" relative="1" as="geometry">
            <mxPoint x="940" y="515" as="sourcePoint" />
            <mxPoint x="990" y="465" as="targetPoint" />
          </mxGeometry>
        </mxCell>
        <mxCell id="BD7Ygz-sJtCW-BqWoPz--319" value="" style="endArrow=none;dashed=1;html=1;dashPattern=1 3;strokeWidth=2;rounded=0;fontSize=12;startSize=8;endSize=8;curved=1;entryX=1;entryY=0.5;entryDx=0;entryDy=0;exitX=0;exitY=0.5;exitDx=0;exitDy=0;" edge="1" parent="1" source="BD7Ygz-sJtCW-BqWoPz--317" target="BD7Ygz-sJtCW-BqWoPz--317">
          <mxGeometry width="50" height="50" relative="1" as="geometry">
            <mxPoint x="790" y="530" as="sourcePoint" />
            <mxPoint x="840" y="480" as="targetPoint" />
          </mxGeometry>
        </mxCell>
        <mxCell id="BD7Ygz-sJtCW-BqWoPz--320" value="Generate sensor data" style="rounded=1;whiteSpace=wrap;html=1;fontSize=16;" vertex="1" parent="1">
          <mxGeometry x="570" y="524" width="120" height="60" as="geometry" />
        </mxCell>
        <mxCell id="BD7Ygz-sJtCW-BqWoPz--321" value="Generate camera data" style="rounded=1;whiteSpace=wrap;html=1;fontSize=16;" vertex="1" parent="1">
          <mxGeometry x="570" y="436" width="120" height="60" as="geometry" />
        </mxCell>
        <mxCell id="BD7Ygz-sJtCW-BqWoPz--323" value="&lt;font style=&quot;font-size: 13px;&quot;&gt;120 ms&lt;/font&gt;" style="text;html=1;strokeColor=none;fillColor=none;align=center;verticalAlign=middle;whiteSpace=wrap;rounded=0;fontSize=12;" vertex="1" parent="1">
          <mxGeometry x="757.5" y="422" width="45" height="14" as="geometry" />
        </mxCell>
        <mxCell id="BD7Ygz-sJtCW-BqWoPz--324" value="&lt;font style=&quot;font-size: 13px;&quot;&gt;60 ms&lt;/font&gt;" style="text;html=1;strokeColor=none;fillColor=none;align=center;verticalAlign=middle;whiteSpace=wrap;rounded=0;fontSize=12;" vertex="1" parent="1">
          <mxGeometry x="760" y="584" width="40" height="10" as="geometry" />
        </mxCell>
        <mxCell id="BD7Ygz-sJtCW-BqWoPz--325" value="" style="endArrow=none;html=1;rounded=0;entryX=0.5;entryY=1.104;entryDx=0;entryDy=0;exitX=1;exitY=0.5;exitDx=0;exitDy=0;entryPerimeter=0;" edge="1" parent="1" source="BD7Ygz-sJtCW-BqWoPz--321" target="BD7Ygz-sJtCW-BqWoPz--323">
          <mxGeometry width="50" height="50" relative="1" as="geometry">
            <mxPoint x="840" y="500" as="sourcePoint" />
            <mxPoint x="890" y="450" as="targetPoint" />
            <Array as="points">
              <mxPoint x="780" y="466" />
            </Array>
          </mxGeometry>
        </mxCell>
        <mxCell id="BD7Ygz-sJtCW-BqWoPz--329" value="&lt;b&gt;&lt;font style=&quot;font-size: 16px;&quot;&gt;SENSOR&lt;/font&gt;&lt;/b&gt;" style="text;html=1;strokeColor=none;fillColor=none;align=center;verticalAlign=middle;whiteSpace=wrap;rounded=0;" vertex="1" parent="1">
          <mxGeometry x="820" y="510" width="60" height="30" as="geometry" />
        </mxCell>
        <mxCell id="BD7Ygz-sJtCW-BqWoPz--330" value="" style="endArrow=none;html=1;rounded=0;exitX=1;exitY=0.5;exitDx=0;exitDy=0;entryX=0.5;entryY=0;entryDx=0;entryDy=0;" edge="1" parent="1" source="BD7Ygz-sJtCW-BqWoPz--320" target="BD7Ygz-sJtCW-BqWoPz--324">
          <mxGeometry width="50" height="50" relative="1" as="geometry">
            <mxPoint x="790" y="590" as="sourcePoint" />
            <mxPoint x="840" y="540" as="targetPoint" />
            <Array as="points">
              <mxPoint x="780" y="554" />
            </Array>
          </mxGeometry>
        </mxCell>
        <mxCell id="BD7Ygz-sJtCW-BqWoPz--331" value="" style="endArrow=classic;html=1;rounded=0;exitX=0.5;exitY=1;exitDx=0;exitDy=0;entryX=0.75;entryY=1;entryDx=0;entryDy=0;" edge="1" parent="1" source="BD7Ygz-sJtCW-BqWoPz--324" target="BD7Ygz-sJtCW-BqWoPz--320">
          <mxGeometry width="50" height="50" relative="1" as="geometry">
            <mxPoint x="700" y="634" as="sourcePoint" />
            <mxPoint x="750" y="584" as="targetPoint" />
            <Array as="points">
              <mxPoint x="780" y="600" />
              <mxPoint x="660" y="600" />
            </Array>
          </mxGeometry>
        </mxCell>
        <mxCell id="BD7Ygz-sJtCW-BqWoPz--332" value="&lt;b&gt;&lt;font style=&quot;font-size: 16px;&quot;&gt;CAMERA&lt;/font&gt;&lt;/b&gt;" style="text;html=1;strokeColor=none;fillColor=none;align=center;verticalAlign=middle;whiteSpace=wrap;rounded=0;" vertex="1" parent="1">
          <mxGeometry x="820" y="480" width="60" height="30" as="geometry" />
        </mxCell>
        <mxCell id="BD7Ygz-sJtCW-BqWoPz--333" value="" style="endArrow=none;html=1;rounded=0;entryX=0.5;entryY=1;entryDx=0;entryDy=0;exitX=1;exitY=0.5;exitDx=0;exitDy=0;" edge="1" parent="1" source="BD7Ygz-sJtCW-BqWoPz--288" target="BD7Ygz-sJtCW-BqWoPz--287">
          <mxGeometry width="50" height="50" relative="1" as="geometry">
            <mxPoint x="560" y="340" as="sourcePoint" />
            <mxPoint x="610" y="290" as="targetPoint" />
            <Array as="points">
              <mxPoint x="650" y="300" />
            </Array>
          </mxGeometry>
        </mxCell>
        <mxCell id="BD7Ygz-sJtCW-BqWoPz--334" value="" style="endArrow=none;html=1;rounded=0;entryX=0.5;entryY=0;entryDx=0;entryDy=0;exitX=1;exitY=0.5;exitDx=0;exitDy=0;" edge="1" parent="1" source="BD7Ygz-sJtCW-BqWoPz--303" target="BD7Ygz-sJtCW-BqWoPz--305">
          <mxGeometry width="50" height="50" relative="1" as="geometry">
            <mxPoint x="980" y="180" as="sourcePoint" />
            <mxPoint x="1030" y="130" as="targetPoint" />
            <Array as="points">
              <mxPoint x="1060" y="140" />
            </Array>
          </mxGeometry>
        </mxCell>
        <mxCell id="BD7Ygz-sJtCW-BqWoPz--335" value="" style="endArrow=classic;html=1;rounded=0;entryX=0.75;entryY=0;entryDx=0;entryDy=0;exitX=0.5;exitY=0;exitDx=0;exitDy=0;" edge="1" parent="1" source="BD7Ygz-sJtCW-BqWoPz--323" target="BD7Ygz-sJtCW-BqWoPz--321">
          <mxGeometry width="50" height="50" relative="1" as="geometry">
            <mxPoint x="730" y="460" as="sourcePoint" />
            <mxPoint x="780" y="410" as="targetPoint" />
            <Array as="points">
              <mxPoint x="780" y="420" />
              <mxPoint x="660" y="420" />
            </Array>
          </mxGeometry>
        </mxCell>
        <mxCell id="BD7Ygz-sJtCW-BqWoPz--336" value="&lt;font style=&quot;font-size: 16px;&quot;&gt;Intrusion check&lt;/font&gt;" style="rhombus;whiteSpace=wrap;html=1;" vertex="1" parent="1">
          <mxGeometry x="110" y="450" width="130" height="120" as="geometry" />
        </mxCell>
        <mxCell id="BD7Ygz-sJtCW-BqWoPz--337" value="No" style="edgeStyle=elbowEdgeStyle;elbow=horizontal;endArrow=classic;html=1;curved=0;rounded=0;endSize=8;startSize=8;exitX=0.5;exitY=0;exitDx=0;exitDy=0;entryX=0.5;entryY=0;entryDx=0;entryDy=0;fontSize=16;" edge="1" parent="1" source="BD7Ygz-sJtCW-BqWoPz--336" target="BD7Ygz-sJtCW-BqWoPz--317">
          <mxGeometry width="50" height="50" relative="1" as="geometry">
            <mxPoint x="250" y="422" as="sourcePoint" />
            <mxPoint x="300" y="372" as="targetPoint" />
            <Array as="points">
              <mxPoint x="210" y="390" />
            </Array>
          </mxGeometry>
        </mxCell>
        <mxCell id="BD7Ygz-sJtCW-BqWoPz--340" value="" style="endArrow=classic;html=1;rounded=0;entryX=1;entryY=0.5;entryDx=0;entryDy=0;" edge="1" parent="1" target="BD7Ygz-sJtCW-BqWoPz--336">
          <mxGeometry width="50" height="50" relative="1" as="geometry">
            <mxPoint x="490" y="510" as="sourcePoint" />
            <mxPoint x="410" y="480" as="targetPoint" />
          </mxGeometry>
        </mxCell>
        <mxCell id="BD7Ygz-sJtCW-BqWoPz--341" value="Yes" style="endArrow=classic;html=1;rounded=0;exitX=0.5;exitY=1;exitDx=0;exitDy=0;fontSize=16;entryX=0.15;entryY=-0.01;entryDx=0;entryDy=0;entryPerimeter=0;" edge="1" parent="1" source="BD7Ygz-sJtCW-BqWoPz--336" target="BD7Ygz-sJtCW-BqWoPz--246">
          <mxGeometry width="50" height="50" relative="1" as="geometry">
            <mxPoint x="380" y="470" as="sourcePoint" />
            <mxPoint x="175" y="650" as="targetPoint" />
            <mxPoint as="offset" />
          </mxGeometry>
        </mxCell>
        <mxCell id="BD7Ygz-sJtCW-BqWoPz--343" value="" style="shape=image;html=1;verticalAlign=top;verticalLabelPosition=bottom;labelBackgroundColor=#ffffff;imageAspect=0;aspect=fixed;image=https://cdn4.iconfinder.com/data/icons/essential-app-2/16/record-round-circle-dot-128.png;fontSize=16;" vertex="1" parent="1">
          <mxGeometry x="161" y="730" width="28" height="28" as="geometry" />
        </mxCell>
        <mxCell id="BD7Ygz-sJtCW-BqWoPz--344" value="&lt;font style=&quot;font-size: 16px;&quot;&gt;Alarm sound&lt;/font&gt;" style="rounded=1;whiteSpace=wrap;html=1;" vertex="1" parent="1">
          <mxGeometry x="490" y="704" width="140" height="80" as="geometry" />
        </mxCell>
        <mxCell id="BD7Ygz-sJtCW-BqWoPz--345" value="" style="endArrow=classic;html=1;rounded=0;exitX=1;exitY=0.5;exitDx=0;exitDy=0;entryX=0;entryY=0.5;entryDx=0;entryDy=0;" edge="1" parent="1" source="BD7Ygz-sJtCW-BqWoPz--343" target="BD7Ygz-sJtCW-BqWoPz--344">
          <mxGeometry width="50" height="50" relative="1" as="geometry">
            <mxPoint x="390" y="640" as="sourcePoint" />
            <mxPoint x="440" y="590" as="targetPoint" />
          </mxGeometry>
        </mxCell>
        <mxCell id="BD7Ygz-sJtCW-BqWoPz--347" value="Valid pincode OR Duration &amp;gt; 10s" style="edgeStyle=segmentEdgeStyle;endArrow=classic;html=1;curved=0;rounded=0;endSize=8;startSize=8;entryX=0.5;entryY=1;entryDx=0;entryDy=0;exitX=1;exitY=0.5;exitDx=0;exitDy=0;strokeWidth=1;fontSize=16;" edge="1" parent="1" source="BD7Ygz-sJtCW-BqWoPz--344" target="BD7Ygz-sJtCW-BqWoPz--316">
          <mxGeometry x="-0.0017" width="50" height="50" relative="1" as="geometry">
            <mxPoint x="770" y="680" as="sourcePoint" />
            <mxPoint x="820" y="630" as="targetPoint" />
            <mxPoint as="offset" />
          </mxGeometry>
        </mxCell>
      </root>
    </mxGraphModel>
  </diagram>
</mxfile>
